<svg width="86" height="86" viewBox="0 0 86 86" fill="none" xmlns="http://www.w3.org/2000/svg">
<rect width="86" height="86" fill="#9F5A38"/>
<path d="M29.64 70.408C30.632 70.408 31.336 70.68 31.752 71.224C32.168 71.736 32.376 72.28 32.376 72.856C32.376 73.656 31.976 74.504 31.176 75.4C30.376 76.296 29.336 77.128 28.056 77.896C26.808 78.632 25.464 79.24 24.024 79.72C22.584 80.2 21.208 80.44 19.896 80.44C17.944 80.44 16.072 79.912 14.28 78.856C12.52 77.768 11.08 76.248 9.96 74.296C8.872 72.344 8.328 70.024 8.328 67.336C8.328 65.128 8.744 62.936 9.576 60.76C10.44 58.584 11.576 56.488 12.984 54.472C14.424 52.456 15.992 50.584 17.688 48.856C19.416 47.128 21.144 45.624 22.872 44.344C24.632 43.064 26.248 42.072 27.72 41.368C29.192 40.632 30.376 40.264 31.272 40.264C32.392 40.264 33.224 40.552 33.768 41.128C34.344 41.672 34.632 42.44 34.632 43.432C34.632 44.232 34.472 44.856 34.152 45.304C33.864 45.72 33.4 46.088 32.76 46.408C30.712 47.464 28.632 48.744 26.52 50.248C24.44 51.752 22.536 53.416 20.808 55.24C19.08 57.032 17.688 58.92 16.632 60.904C15.576 62.888 15.048 64.904 15.048 66.952C15.048 69.192 15.496 70.888 16.392 72.04C17.288 73.192 18.504 73.768 20.04 73.768C20.808 73.768 21.64 73.608 22.536 73.288C23.432 72.936 24.312 72.536 25.176 72.088C26.072 71.64 26.904 71.256 27.672 70.936C28.472 70.584 29.128 70.408 29.64 70.408ZM46.8885 79.384C46.0565 79.384 45.4485 78.984 45.0645 78.184C44.6805 77.384 44.4885 75.96 44.4885 73.912C44.4885 71.032 44.6645 67.992 45.0165 64.792C45.4005 61.56 45.8965 58.072 46.5045 54.328C47.0485 51.352 48.3445 49.064 50.3925 47.464C52.4725 45.864 55.2565 44.552 58.7445 43.528C60.9205 42.888 63.1765 42.296 65.5125 41.752C67.8485 41.208 70.0405 40.776 72.0885 40.456C74.1685 40.104 75.8805 39.928 77.2245 39.928C78.2485 39.928 79.0485 40.088 79.6245 40.408C80.2005 40.728 80.6005 41.128 80.8245 41.608C81.0805 42.056 81.2085 42.472 81.2085 42.856C81.2085 43.464 81.0645 44.008 80.7765 44.488C80.4885 44.968 79.8645 45.336 78.9045 45.592C78.4885 45.72 77.6085 45.944 76.2645 46.264C74.9525 46.552 73.3365 46.904 71.4165 47.32C69.5285 47.736 67.5285 48.184 65.4165 48.664C63.3045 49.112 61.2565 49.576 59.2725 50.056C57.3205 50.632 55.8805 51.336 54.9525 52.168C54.0565 52.968 53.4645 54.136 53.1765 55.672C53.1125 55.992 53.0485 56.44 52.9845 57.016C54.2965 56.6 55.7045 56.264 57.2085 56.008C58.7125 55.752 60.1045 55.56 61.3845 55.432C62.6645 55.304 63.6085 55.24 64.2165 55.24C64.8565 55.24 65.5285 55.352 66.2325 55.576C66.9685 55.768 67.5925 56.072 68.1045 56.488C68.6485 56.872 68.9205 57.368 68.9205 57.976C68.9205 58.552 68.6965 59.08 68.2485 59.56C67.8005 60.008 66.8885 60.44 65.5125 60.856C65.2245 60.952 64.5685 61.08 63.5445 61.24C62.5525 61.4 61.3685 61.608 59.9925 61.864C58.6485 62.088 57.2725 62.344 55.8645 62.632C54.4885 62.92 53.2725 63.224 52.2165 63.544C51.9925 65.272 51.7845 67 51.5925 68.728C51.4005 70.456 51.2405 71.96 51.1125 73.24C50.9845 74.488 50.8885 75.272 50.8245 75.592C50.6325 76.776 50.1685 77.704 49.4325 78.376C48.6965 79.048 47.8485 79.384 46.8885 79.384Z" fill="white"/>
</svg>
